<?xml version="1.0" encoding="utf-8"?>
<!-- Generator: Adobe Illustrator 22.1.0, SVG Export Plug-In . SVG Version: 6.00 Build 0)  -->
<svg version="1.1" id="Layer_1_xA0_Image_1_" xmlns="http://www.w3.org/2000/svg" xmlns:xlink="http://www.w3.org/1999/xlink"
	 x="0px" y="0px" viewBox="0 0 939 162" style="enable-background:new 0 0 939 162;" xml:space="preserve">
<g>
	<g>
		<path d="M925.5,107.7c-3.1,1.2-5.8,5.5-9,3.7c-3.5-2-1-6.4-0.7-9.6c0.8-9.6-0.4-19.3,0.7-28.8c1.2-10-1.4-19.9,0.4-30.1
			c0.9-4.9-0.3-11.4-1.5-16.9c-1.7-7.8-0.9-13.8,6.7-17.8c0.4,0,0.8,0,1.2,0c0.2,4.2,1,8.5,0.6,12.7c-1.2,13-0.7,26.2-1.3,39.2
			c-0.4,9.3,1.6,18.8,0,28.4c-0.3,2.1,1,4.8,2.9,6.5C925.5,99.3,925.5,103.5,925.5,107.7z"/>
		<path d="M87.2,125.1c10.6,1.4,20.4-3.9,30.5-7.8c2-0.8,4.8-4.4,5.9-0.5c0.8,2.7-0.6,7.3-4.5,8.3c-14.3,3.7-28.7,6.3-43.5,6.7
			c-3.3,0.1-6.6,0.1-9-2.8c-0.7-0.9-1.8-1.4-3.1-1.1c-12.8,3.1-22.5-3.2-31.1-11.2c-3.1-2.9-8-4.9-7.7-10.7c0.1-2.1-3.5-1.6-5-3.4
			c-7.4-9.5-12.5-20.7-9.6-32c3-11.5,7.1-22.9,18.8-31.1c9.8-6.8,19.9-12.4,30.8-15.6c13.8-4,28.2-5.2,42.6-1.3
			c2.4,0.7,5.8,0.5,5.2,4c-0.6,3.6-4.1,4.8-7.4,5.1c-0.9,0.1-1.9-0.4-2.7-0.8c-16.7-7.9-32.9-5.3-49,1.9c-8.5,3.8-15,9.9-20.9,16.8
			c-3,3.5-4,8.1-4.7,12.7c-1.2,7.5-1.7,16.1,1.1,22.2c6.2,13.4,12.6,27.4,28.7,33.3C70.3,124.2,72.8,125.5,87.2,125.1z"/>
		<path d="M565.2,119.4c0.4-4.2,0.3-8.5,1.2-12.6c2.9-13.9,0.2-27.9,0.9-41.8c0.3-6.2-1.5-12.9-2.7-19.3c-0.6-3.5-0.7-6.4,1.5-9.2
			c2.1-2.8,1-4.4-2-4.7c-14-1.1-28-4.3-42.1-0.1c-1.9,0.6-4.2,0.7-5.2-1.3c-0.9-1.7,0.7-3.4,2-4.4c5-3.9,9.4-7,17.1-4.5
			c4.5,1.4,10.7,1.4,16.1,1.7c12,0.8,23.8,3.1,35.6,5.2c4.1,0.7,8.6-1.3,12.9-1.9c7.9-1.1,16.2,1.5,23.7-2.8
			c0.6-0.4,1.5-0.4,2.1,0.4c0.7,1-0.1,1.8-0.5,2.6c-1.9,3.7-11.1,8.3-15.8,7.7c-9-1.2-18-1.2-27.1-1.3c-3.8-0.1-5.2,1.4-4.8,5.2
			c0.5,5.2-0.5,10.2-2.2,15.1c-0.4,1.2-0.4,1.9,0.3,3.1c2,3.3,1.9,7.5,0.5,10.6c-2,4.3-0.4,8.1-0.1,12c0.8,9.4,2.4,18.8-1.3,27.9
			c-0.7,1.7,0.4,2.8,1.2,4.2c4.6,8.4,1.6,17.3-6.3,19.4c-3.2,0.8-5.4,0.7-4.6-3.7c0.4-2.4,0.1-5,0.1-7.5
			C565.4,119.4,565.3,119.4,565.2,119.4z"/>
		<path d="M350.5,127c-0.2,1.3-0.2,1.5-0.3,1.6c-8.4,9.7-4.3,14.5,6.5,17.5c12.7,3.5,25.9,1.3,37.5-6.3c5.1-3.3,6.1-8.5,5.1-13.5
			c-1.3-7.2-5.8-10.2-13-10.6c-9-0.5-17.8-0.2-26.8,0.8c-4.1,0.4-8.5-1.4-10.5-5.7c-2-4.3,1.5-6.3,4.1-8.4c1.6-1.3,3.6-2.1,5.5-3.2
			c-1.1-2.5-4.1-2-5.8-4c-9.3-10.8-3.1-26,12.2-29.3c4.1-0.9,8.7-0.1,12.4-1c7.8-2,16.4,1.2,23.6-3.8c1-0.7,2.3-1.2,3.1-0.1
			c1,1.4-0.3,2.3-1.2,3.4c-3.5,3.9-7.3,6.7-13.3,5c5.3,10,2.8,17.2-8,23.3c-6.3,3.6-13,6.3-19.6,9.3c-2.4,1.1-5,2.2-4.3,5.3
			c0.6,2.8,3.5,2.4,5.8,2.5c4.4,0.1,8.6-0.3,13-0.9c9.8-1.3,20-0.9,27.5,6.8c3.1,3.2,4.3,7.9,2.6,12.8c-4.5,13-15.1,18.5-27.2,21.6
			c-6.4,1.7-13.2,2.4-20,2c-6.9-0.4-13.1-2.7-18.4-6.9c-3.7-2.9-4-7.3-1.4-10.9C342.1,130.8,345.7,128.3,350.5,127z M370.3,68.8
			c-1.8-0.6-4.3,0.2-6.5,1.1c-4.2,1.7-7.5,4.3-8.2,9.4c-0.7,4.8,1.4,8.1,4.9,10.8c5.2,3.9,10.7,2.8,16.2,0.6
			c6.6-2.6,9.3-6.9,7.9-12.7C383.5,72.8,376.8,68.3,370.3,68.8z"/>
		<path d="M153.9,65.9c-4.4,0.1-7.8,2.7-11.1,5.3c-1.4,1-2.4,2.8-4.4,1.6c-1.4-0.8-3.9-0.5-3.9-2.7c0-1.7,1.8-2.3,3.3-2.8
			c8.6-3.2,17.1-6.5,26.7-3.7c6.2,1.8,9.3,5.3,11.4,11.6c3.5,10.4,0.6,21.2,3,31.7c0.5,2.4-7.3,6.6-8.4,4.8c-4-6.5-8.4-0.9-12.2-0.6
			c-6.2,0.5-12.2,2.1-18.6,1.2c-5.4-0.8-8.7-3.6-10.3-8c-1.6-4.5,1.3-8.3,4.6-10.9c7.9-6,16.8-9.7,27-10.4c2.9-0.2,7.5,1.6,8.4-3.7
			c0.8-4.9-2.2-10-6.9-11.7C159.8,66.4,156.9,65.8,153.9,65.9z M170.4,95.7c-0.2-9.9-1-8.8-8.3-8.7c-2.7,0-5.4-0.4-8.1,0.1
			c-5.6,0.9-10.7,3.2-14.7,7.3c-3.8,3.8-1.9,10.3,2.7,12.8c8.3,4.6,15.7,1,23-1.9C168.8,103.8,171.6,100.3,170.4,95.7z"/>
		<path d="M892.3,86.4c1.6,5.3-0.6,12.3,1.2,19c0.9,3.2-1.1,4.1-3.2,5.1c-2,0.9-4.7,3.1-5.9,0.1c-1.2-3-2.4-1.8-4.3-1.4
			c-8.5,1.6-16.8,4.6-25.9,2.9c-5.3-1-8.6-3.8-10-8.3c-1.4-4.2,1.3-8,4.5-10.5c7.9-6.1,16.7-9.8,26.9-10.6c3-0.2,8,1.9,8.7-4
			c0.6-5.4-2.5-9.9-7.7-11.8c-6.8-2.4-12.7-1-18.2,3.4c-0.6,0.5-1.1,1.1-1.6,1.6c-2.8,2.4-5.8,0.4-7-1.4c-1.4-2,1.6-2.9,3.2-3.6
			c7.5-3.1,15.2-5.9,23.3-4.4C887.9,64.9,893.4,73,892.3,86.4z M876,86.9c-9.1-0.7-16,2-21.7,7.2c-4,3.7-2.2,10.4,2.2,12.9
			c8.2,4.7,15.7,1.2,23.1-1.6c5.3-2,6.7-7.4,5.3-14.9c-1-5.6-5.5-2.6-8.4-3.5C876,86.8,875.4,86.8,876,86.9z"/>
		<path d="M725.6,86.2c1.8,5.4-0.7,12.6,1.3,19.5c1,3.3-1.6,4-3.5,4.9c-1.9,1-4.5,2.8-5.8-0.3c-1.1-2.8-2.3-1.5-3.9-1.2
			c-8.5,1.6-16.8,4.7-25.9,3.1c-5.3-0.9-8.7-3.6-10.2-8c-1.6-4.5,1.2-8.3,4.6-10.9c7.9-6,16.8-9.7,26.9-10.4c3-0.2,7.5,1.6,8.4-3.7
			c0.8-4.8-2.3-9.9-7-11.7c-7.1-2.7-13.5-1.6-19.2,3.4c-0.9,0.7-1.6,2-2.6,2.2c-2.4,0.4-5-0.5-5.9-2.4c-0.8-1.8,1.6-2.6,3.2-3.2
			c8.2-3,16.4-6.3,25.5-3.9C721.3,65.9,726.3,73.3,725.6,86.2z M709,86.9c-8.7-0.7-15.8,2-21.6,7.5c-4,3.8-2,10.2,2.7,12.8
			c8.3,4.6,15.7,1,23.1-1.9c5.1-2,6.7-8.2,5-15c-1.3-5.3-5.7-2.3-8.6-3.3C709.2,86.9,708.8,86.9,709,86.9z"/>
		<path d="M418,70.5c2.9-4.1,7.4-4.6,11.2-5.8c7.2-2.3,14.7-3.5,21.9-0.7c8,3,9.8,10.5,10.5,18c0.7,8.1-0.5,16.3,1.4,24.5
			c0.8,3.4-3.2,3.8-5.4,5c-1.5,0.9-3.6,1.4-4-1.2c-0.6-3.2-2.2-1.5-3.8-1.2c-8.7,1.9-17.1,4.7-26.4,3.1c-5.1-0.9-8.1-3.6-9.7-7.8
			c-1.6-4.3,0.7-8.1,4-10.7c8.8-7,18.9-10.6,30.2-10.9c5.4-0.1,7.8-4.9,5.2-9.6c-2.9-5.1-12.7-8.9-18.2-6.7c-2.5,1-5.3,2.1-6.9,4
			C424.6,74.1,421.8,73,418,70.5z M454.6,99.7c0.1-12.2,0.1-12.2-10.4-12.9c-0.4,0-0.8-0.1-1.1-0.1c-7.8-0.1-14.6,2.6-20.1,8.1
			c-3,3-1,9.6,2.3,11.8c8.2,5.5,15.9,1.5,23.5-1.1C451.8,104.5,454.5,101.8,454.6,99.7z"/>
		<path d="M209.8,69.7c7.7-8,17.3-7.8,26.8-6.2c6.5,1.1,9.9,4.7,9.2,11.1c-1.1,10,0.2,19.8,1,29.6c0.4,5.3-3.4,6.1-6.7,7
			c-3,0.8-2.6-1.9-2.2-3.9c2.1-10.3,0.7-20.7,0.2-31c-0.3-6.4-6.3-8.9-15.4-7.6c-0.9,0.1-1.8,0.6-2.8,0.8
			c-11.1,2.2-13.4,5.7-11.7,17.1c1,6.8-0.8,13.6,0.2,20.4c0.6,4.1-4.2,3.6-6.4,4.1c-2.5,0.5-1-2.5-0.9-4c0.1-11.4,0-22.7,0.3-34.1
			c0.1-2.5-3.3-4.4-1.1-6.9c1.6-1.8,3.8-3.9,6.4-3.4C210.3,63.5,207.7,67.3,209.8,69.7z"/>
		<path d="M638.8,80.5c-5.4,0.2-10.8,0.3-16.1,0.8c-5.9,0.5-7.4,3.4-5.3,9c1.6,4.3,2.6,8.8,6.6,11.7c11.8,8.6,22.9,8,34-2
			c0.8-0.8,1.6-1.9,2.9-1.2c1.3,0.8,0.8,2,0.3,3.1c-0.9,1.9-1.8,3.9-3.6,5.2c-8.9,6.4-31.7,5.8-40.6-1c-7.9-6.1-9.6-16.5-4.4-25.2
			c6.5-11,16.3-16.4,28.5-18.2c6.2-0.9,17.3,8.1,18.2,14.5c0.5,3.2-1.4,3.7-3.7,3.7c-5.6,0.1-11.2,0-16.7,0
			C638.8,80.7,638.8,80.6,638.8,80.5z M643.2,76.5c1.2-0.6,4.7,0.2,5.5-2.1c0.7-2.1-2.1-3.7-3.9-5.1c-4.4-3.4-18-0.9-20.8,3.8
			c-1.5,2.5,0.4,2.5,1.8,2.6C631.4,76,636.8,76.2,643.2,76.5z"/>
		<path d="M272.1,100.7c1.9-5.7-0.7-12.6,1.1-19.6c0.6-2.4-0.6-6.2-1.2-9.2c-0.5-2.4-3.3-2-5.5-1.8c-1.2,0.1-2.9,1.4-3.5-0.5
			c-0.5-1.7,1.1-2.8,2.3-3.6c2.6-1.7,8.3,1.4,7.8-5c-0.3-3.4-0.5-6.9-1.2-10.3c-0.6-2.9-0.1-5.1,2.7-6.2c1.9-0.7,3.7-2.9,5.9-1.5
			c2.1,1.3,1.1,3.9,1.1,5.9c0,2.7-0.5,5.3-1.5,7.9c-2.1,5.4-0.5,7.8,4.9,9c4.3,0.9,8.4-0.1,12.5-1.1c1.3-0.3,2.7-1.1,3.4,0.7
			c0.6,1.3-0.6,2-1.3,2.9c-3.2,3.7-7.3,3.8-11.6,3.1c-4.7-0.8-7.9-1.1-8.2,5.9c-0.4,7.8-0.4,15.4,0.7,23c1.1,8.3,6.6,9.5,13.7,3.6
			c1.4-1.1,2.2-3.5,4.6-2.8c0.4,0.1,0.6,1.4,0.5,2c-0.2,2.4-1.6,4-3.8,4.6c-4.6,1.3-8.7,3.8-13.7,4.1
			C274,112.3,272,110.4,272.1,100.7z"/>
		<path d="M751.1,100.6c1.9-5.7-0.7-12.6,1.2-19.5c0.6-2.3-0.7-6.1-1.2-9.1c-0.4-2.5-3.3-2-5.4-1.9c-1.3,0.1-3.3,1.7-3.7-0.8
			c-0.3-1.5,1.3-2.8,2.6-3.5c2.2-1.2,6,1.1,7.1-2.3c1.2-3.9-0.1-8-0.6-11.9c-0.3-2.1-1.1-4.3,0.8-5.9c2.1-1.7,4.6-3.7,7.2-2.8
			c2.6,0.9,1.4,4,1.4,6.2c0,3.1-1.1,6-2,8.9c-1.1,3.7-0.1,6.6,4.5,7.5c4.7,1,9.1,0.2,13.6-1c1.1-0.3,2.3-0.8,3.1,0.5
			c0.7,1.2-0.2,2.1-1,3c-3.2,3.6-7.1,4.1-11.6,3.3c-4.8-0.9-8.4-1.5-8.6,6.1c-0.2,7.7-0.3,15.4,0.7,23c1,7.4,5.8,9.1,12,4.8
			c0.8-0.5,1.4-1.3,2.2-1.8c1.4-0.8,2.5-4.1,4.3-1.7c1.4,1.8-0.1,4.4-2.1,5.3c-5.9,2.7-12,5.2-18.6,5.3
			C753.3,112.4,751.1,108.3,751.1,100.6z"/>
		<path d="M797.5,111.5c1.5-7.6,0.5-14.9,0.8-22c0.3-6,0.2-13.1-1.8-19.4c-1.4-4.4,2-5.3,4.6-6.6c3-1.5,3.5,0.7,4,3
			c0.7,2.9,2.7,1.3,4.1,0.9c3.7-1,6.7-3.5,10.6-4.1c2.9-0.4,5.5-1.1,8.4,0.2c1.8,0.8,5.7-0.8,4.8,2.9c-0.7,2.7-3.4,5.2-7.2,3.6
			c-5.9-2.6-11.5-1.2-16.8,1.5c-4.7,2.4-6.9,9-4.9,15c2.3,7,0.2,14.1,0.8,21.1C805.3,111.3,800,109.5,797.5,111.5z"/>
		<path d="M343.7,51.3c0.3-6.9-2-12.6-6.1-17.9c-3-3.9-12.4-8.7-16.5-7.6c-7.7,2.1-15,5.5-16,14.3c-0.5,4.2-2.6,7.5-3.6,11.3
			c-0.3-7.2-0.2-14.6,4.6-20.5c2.4-2.9,2.4-7.1,6.3-9.2c12.3-6.6,22-4.2,28.3,8.5C344.5,37.9,346.5,43.5,343.7,51.3z"/>
		<path d="M318.2,105.4c-0.2-6.6,2.6-12.4,1.4-18.9c-0.9-4.7-1.1-9.8-1.7-14.6c-0.7-5.7,3.5-6.4,6.6-7.8c2.1-1,2.5,1.2,2.3,3.3
			c-1.4,11.6-1.3,23.2-0.2,34.8c0.1,0.6,0.1,1.2,0.1,1.7c-0.1,4.4-3.4,7.4-6.7,7.4C315.6,111.4,319.9,106.9,318.2,105.4z"/>
		<path d="M329.5,46.3c-1.8,2.1-2.6,5.9-5.8,4.7c-2.7-1-6.3-3-6.6-6c-0.2-2,3-4.9,5.8-4.1C325.6,41.5,328.8,42.7,329.5,46.3z"/>
	</g>
</g>
</svg>
