<?xml version="1.0" encoding="utf-8"?>
<!-- Generator: Adobe Illustrator 22.1.0, SVG Export Plug-In . SVG Version: 6.00 Build 0)  -->
<svg version="1.1" id="Layer_1_xA0_Image_1_" xmlns="http://www.w3.org/2000/svg" xmlns:xlink="http://www.w3.org/1999/xlink"
	 x="0px" y="0px" viewBox="0 0 939 162" style="enable-background:new 0 0 939 162;" xml:space="preserve">
<style type="text/css">
	.st0{fill:#FFFFFF;}
</style>
<g>
	<g>
		<path class="st0" d="M925.5,108.9c-3.5,0.4-6.3,5.6-9.8,2.8c-3.5-2.8-0.8-7.3-0.4-10.9c0.9-9.1-0.4-18.2,0.7-27.2
			c1.2-10.3-1.1-20.4,0.3-30.8c0.7-5.2-0.3-11.8-1.5-17.5c-1.6-7.4-0.7-13.1,6.1-17.1c0.8,0,1.5,0,2.3,0c1,4.1,2,8.3,1.4,12.5
			c-1.9,12.6-0.6,25.3-1.6,38c-0.8,9.6,1.8,19.5,0.3,29.4c-0.3,2.2,1.4,3.9,2.2,5.8C925.5,98.9,925.5,103.9,925.5,108.9z"/>
		<path class="st0" d="M87.5,124.8c10.2,1.3,19.9-4.3,30.1-8.1c2.2-0.8,5.2-4.4,6.5-0.4c1.1,3.2-0.6,7.9-4.3,9
			c-15,4.2-30.2,6.9-45.8,7.1c-0.2,0-0.4,0.1-0.6,0c-8-4.2-17.3-1.7-25.4-5.2c-10.2-4.4-19.2-10.1-23.8-20.8
			c-0.8-1.8-3.1-1.5-4.2-2.9c-8.3-10-13.1-21.8-10-34.2c2.5-9.7,5.5-20.1,14.3-27.3C34.6,33.6,46,26.9,58.7,23.4
			c13.9-3.8,28.3-5.2,42.7-1.8c3.1,0.7,7.1,0.7,6.7,5.4c-0.3,3.4-6.7,6-10.4,4.4c-4.4-1.9-8.5-3.6-13.5-4.1
			c-13.7-1.5-26.5,0.5-38.3,7.3C37,39.7,28.6,45.7,25,55.9c-2.7,7.7-2.2,15.6-0.9,23.7c1.6,10,7,17.8,12.4,25.6
			c3.2,4.6,7.8,7.7,12.8,10.4C60.8,121.8,73,125.3,87.5,124.8z"/>
		<path class="st0" d="M564.6,116.1c0.6-5.5,1.1-11.4,2.1-17.3c1.2-7.5-0.3-14.9,0-22.4c0.4-11.3-1.4-22.4-3.3-33.5
			c-0.4-2.1,0.3-3.9,1.5-5.4c2.9-3.7,1-5.3-2.6-5.4c-13.5-0.5-27-4.1-40.5,0.3c-2.1,0.7-4.5,0.4-5.6-1.7s0.7-3.7,2.1-4.9
			c5.2-4.6,10.4-6,18.2-5c8.9,1.2,18,3,27.2,2.9c7.1-0.1,13.8,2.4,20.8,3.3c3.3,0.4,6.2,0.9,9.3,0c5-1.4,10.2-1.6,15.4-1.4
			c4.6,0.2,9.3,0.2,13.6-1.9c1.3-0.6,2.7-1.1,3.7,0.2c1,1.3-0.1,2.6-0.9,3.6c-4.2,4.9-9.6,7.8-16,7.4c-8.4-0.6-16.9-1.2-25.3-1.3
			c-4.1-0.1-5.8,1-5.7,5.6c0.1,4.7-0.7,9.6-2.1,14.1c-0.9,3,1.2,4.9,1.3,7.5c0.1,5.4-3.1,10.6-1.1,16c3,8.1,1.7,16.6,0.6,24.3
			c-0.9,6.4,0.8,11.7,1.5,17.5c0.7,5-0.8,8.5-5.2,11c-2.4,1.4-4.9,2.8-7.5,1.5c-2.5-1.3-0.8-3.8-0.9-5.8
			C565,122.4,564.8,119.5,564.6,116.1z"/>
		<path class="st0" d="M357.3,98.8c-3.8-1.3-5.4-4.8-8.2-7.1c-3.2-2.6-1.9-12.8,1.8-17.1c6.9-8,15.6-10.2,26.1-10.7
			c7.7-0.4,16.2,1.2,23.5-3.3c1.4-0.8,3.1-1.5,4.2-0.2c1.6,1.9-0.4,3-1.6,4.2c-3.3,3.3-6.6,6.6-12.1,5c4.4,11.1-2.3,22.4-15.7,26.5
			c-5.3,1.6-9.2,5.8-14.7,6.9c-1.5,0.3-2.6,1.8-2.4,3.5c0.3,1.9,2,2.3,3.5,2.3c4.5-0.1,9,0.1,13.6-0.6c10.2-1.6,21-1.3,28.9,6.6
			c3.3,3.2,4.8,8.4,2.7,13.8c-4.6,12.1-14.3,18.1-25.7,21.1c-10.4,2.7-21.1,4-31.8,0.5c-3.6-1.2-6.7-3.1-9.3-5.5
			c-2.6-2.4-3.8-5.7-1.9-9.4c2.2-4.4,6.2-6.7,10.5-8.5c0.4-0.2,1.2,0.1,1.5,0.5c0.7,0.9,0,1.7-0.5,2.6c-4.8,8.2-3,14,6.5,15.6
			c12.7,2.2,25.4,1.4,36.7-5.8c4.7-3,7-9.1,5.7-13.8c-1.7-6.4-5.6-9.3-12.5-9.8c-8.8-0.6-17.5-0.1-26.3,0.8
			c-4.5,0.5-8.9-1.3-11.1-5.7c-2.2-4.5,1.2-7.1,4.3-9.5C354.4,100.8,355.7,100,357.3,98.8z M368.7,92.2c3.7,0,7.1-1.4,10.3-3.1
			c6.3-3.3,7-9.9,2.4-15.4c-4.1-4.8-9.1-4.9-14.6-4c-6.8,1.1-11,5.9-10.5,12C356.7,87.5,362.3,92.1,368.7,92.2z"/>
		<path class="st0" d="M461.6,85c2.3,6.5-0.6,13.9,2,21c0.8,2.2-1,3.5-2.8,4.4c-2.2,1-5,3.8-6.7,1.6c-3.7-4.8-7.6-1.4-11.1-0.8
			c-6.6,1.3-12.9,2.6-19.8,1.4c-5.3-0.9-8.4-3.9-10.1-8.3c-1.7-4.3,0.9-8.1,3.9-10.7c7.7-6.8,16.9-10.2,27.2-11.2
			c3.1-0.3,7.9,1.9,8.7-3.8c0.9-5.8-2.8-8.8-7.4-10.8c-6.8-2.9-12.7-0.7-18.2,3.5c-0.8,0.6-1.3,1.6-2.2,1.9c-2.9,1-5.8-0.2-7-2.4
			c-1.1-2,1.5-3.1,3.3-3.8c9.3-3.7,18.8-7.4,28.9-3.6c4.5,1.7,9.7,3.7,9.8,10.5C460.2,77.3,463.1,80.6,461.6,85z M453.7,94.6
			c-0.8-1.9,1.8-5.8-2.5-6.6c-9.8-1.8-19.1-0.8-26.8,6.3c-3.7,3.4-2.6,9.3,1.4,12c7,4.7,13.7,1.5,20.4-0.4
			C451.4,104.5,455,101.5,453.7,94.6z"/>
		<path class="st0" d="M726,86.3c1.7,6-0.7,12.8,1.4,19.4c0.8,2.4-0.6,3.6-2.4,4.6c-2.1,1.2-5.1,3.6-6.8,1.7
			c-4.1-4.7-8.1-1-11.9-0.5c-6.2,0.9-12.2,2.4-18.7,1.3c-5.8-1-9.5-4-10.8-9c-1.2-4.6,1.7-8.6,5.4-11.3c7.9-5.7,16.6-9.5,26.6-10.1
			c2.7-0.2,7.1,1.8,7.8-3.4c0.8-5-1.9-9.2-6.8-11.1c-6.8-2.7-12.8-1.2-18.3,3.2c-0.7,0.6-1.3,1.5-2.1,2c-2.9,1.6-5.8,0.1-7.1-1.9
			c-1.6-2.4,1.4-3.5,3.3-4.2c9-3.5,17.8-6.9,27.8-3.6c5.6,1.8,9.4,5.5,10.7,11.2C725.2,78.1,727.1,81.6,726,86.3z M706.4,87.2
			c-7.2-0.1-12.7,2.7-17.6,6.4c-4.7,3.5-3.5,10,1.4,12.8c8.4,4.8,16.1,1.2,23.4-2.2c5.5-2.5,4.9-8.1,4-13.1s-5.1-2.8-7.9-3.6
			C708.4,87.2,707,87.3,706.4,87.2z"/>
		<path class="st0" d="M178.1,86.4c1.3,5.5-0.8,12.5,1.2,19.3c0.7,2.3-0.6,3.6-2.4,4.6c-2.1,1.2-5.1,3.6-6.8,1.6
			c-3.9-4.6-7.8-1.2-11.4-0.6c-6.4,1.1-12.6,2.5-19.3,1.4c-5.5-0.9-9.1-3.9-10.6-8.5c-1.6-4.6,1.4-8.7,5-11.4c8-6,16.8-9.8,27-10.5
			c2.7-0.2,7,1.8,7.8-3.5c0.9-5.5-1.8-8.8-6.4-10.8c-6.8-3-13.1-1.7-18.8,3c-0.6,0.5-1,1.2-1.6,1.6c-3.1,2-6.1,0.4-7.5-1.7
			c-1.5-2.4,1.5-3.4,3.4-4.2c8-3.1,16.1-6.6,25-4.3c10.8,2.8,15.5,9.5,15.5,20.8C178.3,83.9,178.2,84.5,178.1,86.4z M170,95.9
			c-0.7-2.7,1.1-6.9-3-7.8c-9.6-2.2-18.7-0.6-26.5,5.7c-3.2,2.6-3.4,9.7-0.6,11.6c6.5,4.4,21.1,3.4,26.9-2
			C168.9,101.4,170.9,99.3,170,95.9z"/>
		<path class="st0" d="M893.4,92.1c0.5,4.7-0.8,9.5,0.8,14.3c0.9,2.7-6.9,7.7-8.9,5.7c-4.5-4.6-8.7-1.1-13-0.4
			c-5.8,0.9-11.5,2-17.6,1.1c-5.8-0.9-9.6-3.9-11-8.7c-1.5-5,1.8-9.3,6-12.1c7.9-5.4,16.4-9.1,26.2-9.7c2.6-0.1,6.9,1.8,7.6-3.7
			c0.7-5.2-1.7-8.5-6-10.4c-7.2-3.3-13.9-1.9-19.6,3.5c-1.5,1.4-3,2.6-5,1.6c-1.5-0.7-3.8-0.7-4-2.8c-0.1-2,1.7-2.8,3.4-3.4
			c8-3.2,16.2-6.7,25-4.5c11.1,2.7,15.5,8.5,15.8,20C893.1,85.6,892.6,88.9,893.4,92.1z M873.5,87.2c-6.7-0.5-12.4,2.5-17.6,6.1
			c-5.2,3.6-4,10.4,1.7,13.4c8.3,4.5,15.7,0.8,22.9-2.5c5.5-2.5,4.8-8.2,3.9-13.2c-0.9-4.9-5.2-2.6-8-3.5
			C875.5,87.2,874.5,87.3,873.5,87.2z"/>
		<path class="st0" d="M209.9,68.8c8-7.4,17.5-7.9,27.3-5.8c6.3,1.4,10,5.2,9.3,11.4c-1.2,10,0.2,19.7,1,29.6
			c0.5,5.4-3.2,6.7-6.8,7.8c-3.6,1.1-3.6-1.9-3.2-4.3c1.7-10.1,0.1-20.3,0.1-30.4c0-5-3.2-7.1-7.9-7.4c-1.7-0.1-3.5-0.1-5.2-0.1
			c-13,0.3-16.9,4.9-15.6,17.7c0.7,6.7-0.7,13.3,0,20.1c0.4,4.3-4.5,4.1-6.8,4.4c-3.3,0.4-1.4-2.9-1.4-4.8
			c0.1-11.3,0.1-22.5,0.2-33.8c0-2.6-3.6-4.8-0.9-7.4c1.9-1.9,4.1-4.1,6.9-3.6C210.5,62.8,208.4,66.5,209.9,68.8z"/>
		<path class="st0" d="M639.5,81.7c-5.6,0-11.2-0.3-16.7,0.1c-5.6,0.4-6.8,3-4.9,8.2c1.6,4.5,2.6,9,7.1,12
			c11.4,7.8,22.2,7.2,32.6-2.2c1.2-1.1,2.4-2.4,4-1.2c1.7,1.2,0.6,2.7-0.1,4.1c-1.5,2.8-3.1,5.3-6.4,6.2c-10.6,3-21.2,5.1-32.2,1.3
			c-12.2-4.2-17.4-21.2-10.2-30.8c7.5-10,16.7-15.6,28.6-17.4c6.8-1,18.5,9.5,18.9,16.2c0.2,3.1-2,3-3.8,3c-5.6,0.1-11.2,0-16.7,0
			C639.5,81.4,639.5,81.5,639.5,81.7z M648.4,74.6c-4.7-7.5-18.3-8.6-23-2.2c-1,1.4-1,2.8,1,2.7C633.6,74.8,640.8,77.1,648.4,74.6z"
			/>
		<path class="st0" d="M751.1,94.6c-1.2-6,0.8-12.5-0.1-19.2c-0.6-4-1.8-5-5.4-4.5c-1.6,0.2-3.8,1.6-4.4-0.9c-0.4-2,1.5-3.6,3.1-4.5
			c7.4-4.1,8.1-5.1,6.2-14.2c-0.6-2.8-0.6-5.2,1.9-6.6c2.2-1.3,4.6-3.7,7.3-2.1c2.4,1.3,1.3,4.2,1.3,6.4c0.1,3.1-0.8,6-1.8,9
			c-1.2,3.6-0.2,6.2,4.2,7.2c4.5,1,8.7-0.1,13-1c1.5-0.3,3.2-0.9,4,1c0.6,1.5-0.5,2.5-1.5,3.5c-2.9,3-6.3,4-10.4,3.6
			c-8.1-0.8-12.2,2.6-10.1,10c1.6,5.5-1,10.8,1.1,16c1.2,2.9,0.4,6.9,4.1,8.2c3.5,1.2,6.2-0.9,9-2.8c1.6-1.2,2.4-3.7,5.1-3.2
			c1.1,0.2,1.3,1.3,1.1,2.3c-0.4,2.7-1.7,4.8-4.3,5.6c-4.9,1.6-9.5,4.1-14.9,4.3c-5.4,0.2-8.3-1.7-8.9-7.1c-0.2-1.7-0.1-3.5-0.1-5.2
			C750.8,98.6,751,96.9,751.1,94.6z"/>
		<path class="st0" d="M272.1,94.5c-1.2-5.8,0.7-12.2-0.1-18.7c-0.5-4.1-1.6-5.6-5.6-4.9c-1.4,0.3-3.4,1.3-4.1-0.6
			c-0.8-2.2,1.3-4.3,2.7-4.5c11.7-1.4,6.5-9.6,6.2-15.5c-0.1-2.9,0.6-5,3-6.2c2-1,4.1-3,6.4-1.8c2.4,1.3,1.5,4.1,1.5,6.3
			c0,2.9-0.5,5.7-1.6,8.4c-1.9,4.7-0.3,7,4.7,8.1c4.1,0.9,8-0.2,11.9-1.1c1.5-0.3,3.3-1,4.2,0.5c1.1,1.9-0.6,3.1-1.8,4.3
			c-3,3.1-6.6,3.4-10.6,3c-7.5-0.7-11.4,2.4-9.5,9.8c1.4,5.6-0.9,10.8,1.1,16.1c1.1,3,0.5,6.9,4.1,8.3c3.6,1.5,6.6-0.9,9.4-3
			c1.5-1.1,2.3-3.3,4.6-2.9c1.1,0.2,1.4,1.3,1.2,2.3c-0.3,2.5-1.5,4.5-3.9,5.3c-5,1.7-9.8,4.3-15.4,4.5c-5.4,0.2-8.3-1.8-8.8-7.2
			c-0.2-1.7-0.1-3.5-0.1-5.2C271.8,98.5,271.9,96.8,272.1,94.5z"/>
		<path class="st0" d="M796.6,106.5c2.5-5.4,1-11.7,1-17.5c0.1-6,0.8-12.9-1.7-19.1c-1.7-4.1,2-5.1,4.5-6.8c2.7-1.8,4.1-0.7,5.2,2
			c1.6,3.8,4,1.5,6.2,0.5c5.6-2.5,11-5.1,17.5-2.8c2.2,0.8,5.4,0.6,4.3,3.6c-0.9,2.5-3.1,5.5-7.1,4.2c-3.6-1.1-6.9-2-11-1
			c-9.7,2.5-13.1,6.6-10.7,16.5c1.7,6.9,0.2,13.8,0.9,20.6c0.4,4-4.2,4.4-6.8,4.8C795.1,112.1,797.7,108.6,796.6,106.5z"/>
		<path class="st0" d="M301.9,53.4c-2-7.5-1.4-14.9,2.9-21.1c2.8-4,3.5-9.2,9.1-11.9c9.6-4.6,16.8-4.4,23.9,4.3
			c5.7,7,8.9,15.2,7.6,24.6c-0.2,1.2,1,3.2-1,3.3c-2.2,0.1-1.8-2.2-1.7-3.6c0.5-8.3-3.6-14.2-9.7-19c-10.7-8.3-27.3-0.3-27.5,12.1
			C305.4,46.2,302.3,49.3,301.9,53.4z"/>
		<path class="st0" d="M318.1,105.2c-0.1-3.5,0.8-6.8,1.2-10.1c0.7-5.2-0.4-10.7-0.9-16.1c-0.3-2.8-0.9-5.6-1.2-8.4
			c-0.3-3,5.7-7.8,8.4-6.9c2.2,0.7,1.9,2.4,1.7,4.2c-1.2,11.3-1.7,22.7,0,34c0.8,5.2-2.6,7.7-6.3,9.9c-1.9,1.1-3.4,0.2-3.5-2.1
			C317.5,108.2,317.9,106.7,318.1,105.2z"/>
		<path class="st0" d="M322.6,39.7c2.9,1.9,6.9,2.4,7,6.2c0,2.7-2.2,6.1-5.3,5.7c-3.4-0.5-7-3.3-7.7-6.5
			C316.1,42.5,320,41.1,322.6,39.7z"/>
	</g>
</g>
</svg>
